<svg width="56" height="56" viewBox="0 0 56 56" fill="none" xmlns="http://www.w3.org/2000/svg">
<path d="M49.6 25.6C48.16 25.6 47.2 26.56 47.2 28C47.2 34.96 43.6 41.2 37.6 44.56C28.48 49.84 16.72 46.72 11.44 37.6C6.16 28.48 9.28 16.72 18.4 11.44C26.32 6.88 35.92 8.56 41.92 14.8H36.16C34.72 14.8 33.76 15.76 33.76 17.2C33.76 18.64 34.72 19.6 36.16 19.6H46.96C48.4 19.6 49.36 18.64 49.36 17.2V6.4C49.36 4.96 48.4 4 46.96 4C45.52 4 44.56 4.96 44.56 6.4V10.72C40 6.4 34.24 4 28 4C14.8 4 4 14.8 4 28C4 41.2 14.8 52 28 52C41.2 52 52 41.2 52 28C52 26.56 51.04 25.6 49.6 25.6Z" fill="black"/>
</svg>
