<svg width="48" height="48" viewBox="0 0 48 48" fill="none" xmlns="http://www.w3.org/2000/svg">
<g clip-path="url(#clip0_897_177)">
<path d="M46.6 21.6C45.16 21.6 44.2 22.56 44.2 24C44.2 30.96 40.6 37.2 34.6 40.56C25.48 45.84 13.72 42.72 8.44 33.6C3.16 24.48 6.28 12.72 15.4 7.44C23.32 2.88 32.92 4.56 38.92 10.8H33.16C31.72 10.8 30.76 11.76 30.76 13.2C30.76 14.64 31.72 15.6 33.16 15.6H43.96C45.4 15.6 46.36 14.64 46.36 13.2V2.4C46.36 0.96 45.4 0 43.96 0C42.52 0 41.56 0.96 41.56 2.4V6.72C37 2.4 31.24 0 25 0C11.8 0 1 10.8 1 24C1 37.2 11.8 48 25 48C38.2 48 49 37.2 49 24C49 22.56 48.04 21.6 46.6 21.6Z" fill="white"/>
</g>
<defs>
<clipPath id="clip0_897_177">
<rect width="48" height="48" fill="white"/>
</clipPath>
</defs>
</svg>
